# xmcd
#
# Track frame offsets:
#	150
#	18285
#	32982
#	47617
#	60630
#	73217
#	106217
#	124972
#	144832
#	159122
#	173727
#	198034
#	226032
#	241510
#	268080
#	281687
#	295790
#
# Disc length: 4058 seconds
#
# Revision: 3
# Processed by: cddbd v1.5.2PL0 Copyright (c) Steve Scherf et al.
# Submitted via: EasyCDDAExtractor 15.3.0.1
#
DISCID=e10fd811
DTITLE=Lucero - Un Lucero En La Mexico - Rancheras
DYEAR=2001
DGENRE=Latin
TTITLE0=Si Nos Dejan
TTITLE1=Que No Quede Huella
TTITLE2=Corazon Lastimado
TTITLE3=Se Me Olvido Otra Vez
TTITLE4=El Milagro
TTITLE5=Popurri (La Media Vuelta, Que Bonito Amor, Un Mundo Raro, No Volvere)
TTITLE6=Me Estas Quemando
TTITLE7=Y Volvere
TTITLE8=Desviste Mi Boca
TTITLE9=De Que Manera Te Olvido
TTITLE10=Amor Eterno
TTITLE11=Popurri (El Noa Noa, Flores De Amor, No Tengo Dinero, Sera Mañana, El
TTITLE11=Noa Noa)
TTITLE12=Una Aventura
TTITLE13=Tristes Recuerdos
TTITLE14=Llorar
TTITLE15=Volver, Volver
TTITLE16=El Son De La Negra
EXTD=YEAR: 1999 ID3G:  13
EXTT0=
EXTT1=
EXTT2=
EXTT3=
EXTT4=
EXTT5=
EXTT6=
EXTT7=
EXTT8=
EXTT9=
EXTT10=
EXTT11=
EXTT12=
EXTT13=
EXTT14=
EXTT15=
EXTT16=
PLAYORDER=
